<?xml version="1.0" encoding="UTF-8" standalone="no" ?>
<!DOCTYPE svg PUBLIC "-//W3C//DTD SVG 1.1//EN" "http://www.w3.org/Graphics/SVG/1.1/DTD/svg11.dtd">
<svg xmlns="http://www.w3.org/2000/svg" xmlns:xlink="http://www.w3.org/1999/xlink" version="1.1" width="1080" height="1080" viewBox="0 0 1080 1080" xml:space="preserve">
<desc>Created with Fabric.js 5.2.4</desc>
<defs>
</defs>
<g transform="matrix(1 0 0 1 540 540)" id="f8c62cb5-7d08-4b93-a2aa-73f59245c303"  >
<rect style="stroke: none; stroke-width: 1; stroke-dasharray: none; stroke-linecap: butt; stroke-dashoffset: 0; stroke-linejoin: miter; stroke-miterlimit: 4; fill: rgb(255,255,255); fill-rule: nonzero; opacity: 1; visibility: hidden;" vector-effect="non-scaling-stroke"  x="-540" y="-540" rx="0" ry="0" width="1080" height="1080" />
</g>
<g transform="matrix(1 0 0 1 540 540)" id="90761788-e579-4c82-a50c-9cdb4d2c570f"  >
</g>
<g transform="matrix(0.13 0 0 -0.13 537.29 412.97)"  >
<path style="stroke: none; stroke-width: 1; stroke-dasharray: none; stroke-linecap: butt; stroke-dashoffset: 0; stroke-linejoin: miter; stroke-miterlimit: 4; fill: rgb(0,0,0); fill-rule: nonzero; opacity: 1;" vector-effect="non-scaling-stroke"  transform=" translate(-2661.83, -3608.58)" d="M 2435 3780 C 2309 3753 2210 3716 2105 3659 C 1965 3582 1818 3457 1835 3430 C 1839 3423 2122 3420 2666 3420 C 3452 3420 3490 3421 3490 3438 C 3490 3489 3245 3663 3094 3720 C 2943 3776 2862 3791 2690 3796 C 2552 3799 2510 3797 2435 3780 z" stroke-linecap="round" />
</g>
<g transform="matrix(0.13 0 0 -0.13 452 463.48)"  >
<path style="stroke: none; stroke-width: 1; stroke-dasharray: none; stroke-linecap: butt; stroke-dashoffset: 0; stroke-linejoin: miter; stroke-miterlimit: 4; fill: rgb(0,0,0); fill-rule: nonzero; opacity: 1;" vector-effect="non-scaling-stroke"  transform=" translate(-2010.15, -3233.14)" d="M 1728 3284 C 1678 3275 1639 3200 1676 3186 C 1685 3183 1810 3180 1954 3180 C 2214 3180 2216 3180 2266 3205 C 2321 3233 2366 3268 2358 3276 C 2351 3283 1763 3290 1728 3284 z" stroke-linecap="round" />
</g>
<g transform="matrix(0.13 0 0 -0.13 625.89 463.17)"  >
<path style="stroke: none; stroke-width: 1; stroke-dasharray: none; stroke-linecap: butt; stroke-dashoffset: 0; stroke-linejoin: miter; stroke-miterlimit: 4; fill: rgb(0,0,0); fill-rule: nonzero; opacity: 1;" vector-effect="non-scaling-stroke"  transform=" translate(-3314.15, -3235.5)" d="M 3043 3283 C 3003 3281 2970 3275 2970 3270 C 2970 3264 2995 3243 3027 3223 L 3083 3185 L 3369 3185 L 3655 3185 L 3658 3211 C 3660 3225 3652 3247 3641 3261 L 3622 3285 L 3368 3286 C 3229 3286 3082 3285 3043 3283 z" stroke-linecap="round" />
</g>
<g transform="matrix(0.13 0 0 -0.13 536.89 595.99)"  >
<path style="stroke: none; stroke-width: 1; stroke-dasharray: none; stroke-linecap: butt; stroke-dashoffset: 0; stroke-linejoin: miter; stroke-miterlimit: 4; fill: rgb(0,0,0); fill-rule: nonzero; opacity: 1;" vector-effect="non-scaling-stroke"  transform=" translate(-2666.63, -2223.19)" d="M 1543 2893 C 1527 2869 1525 2841 1525 2665 C 1526 2475 1527 2460 1553 2376 C 1619 2165 1696 2028 1826 1890 C 2002 1705 2200 1597 2465 1539 C 2543 1522 2787 1522 2865 1539 C 3213 1615 3488 1808 3653 2095 C 3773 2303 3826 2540 3803 2770 C 3787 2930 3805 2920 3533 2920 C 3349 2920 3308 2917 3304 2906 C 3301 2898 3306 2854 3314 2808 C 3346 2641 3328 2512 3256 2364 C 3181 2212 3047 2095 2875 2030 C 2800 2002 2622 1991 2528 2009 C 2493 2016 2423 2041 2372 2066 C 2214 2142 2088 2284 2028 2452 C 2008 2508 2006 2532 2008 2665 C 2009 2748 2011 2838 2013 2865 L 2015 2915 L 1788 2918 L 1561 2920 L 1543 2893 z" stroke-linecap="round" />
</g>
</svg>