<?xml version="1.0" standalone="no"?>
<!DOCTYPE svg PUBLIC "-//W3C//DTD SVG 20010904//EN"
 "http://www.w3.org/TR/2001/REC-SVG-20010904/DTD/svg10.dtd">
<svg version="1.0" xmlns="http://www.w3.org/2000/svg"
 width="532.000000pt" height="532.000000pt" viewBox="0 0 532.000000 532.000000"
 preserveAspectRatio="xMidYMid meet">

<g transform="translate(0.000000,532.000000) scale(0.100000,-0.100000)"
fill="#000000" stroke="none">
<path d="M2466 5309 c-58 -5 -105 -14 -112 -21 -8 -7 -21 -50 -29 -95 -39
-207 -103 -331 -240 -468 -135 -136 -277 -211 -455 -242 -99 -18 -253 -12
-344 12 -84 22 -210 80 -276 126 -31 21 -65 39 -76 39 -36 0 -344 -318 -344
-354 0 -8 25 -50 55 -95 127 -184 182 -387 156 -576 -54 -387 -307 -661 -683
-740 -110 -24 -105 -17 -113 -157 -7 -140 8 -345 27 -364 7 -7 56 -22 108 -32
236 -48 407 -154 540 -333 65 -87 125 -220 146 -322 22 -103 19 -274 -5 -367
-23 -91 -85 -227 -135 -295 -20 -27 -36 -60 -36 -72 0 -36 263 -304 337 -344
28 -15 19 -19 145 65 88 59 160 90 276 117 72 17 110 20 217 17 114 -4 142 -9
225 -37 220 -75 414 -250 505 -455 13 -29 35 -103 50 -163 15 -60 30 -116 35
-123 13 -21 215 -33 355 -20 66 6 128 13 137 16 20 6 22 11 43 129 32 176 117
329 254 457 43 40 104 88 135 107 79 47 219 98 307 112 90 14 252 6 333 -16
80 -21 213 -84 282 -134 32 -23 66 -41 77 -41 24 0 316 285 342 334 l18 33
-57 81 c-240 342 -201 791 94 1083 121 120 278 199 454 230 37 6 73 17 81 25
21 22 28 111 23 307 -5 172 -6 181 -28 199 -12 10 -36 18 -54 18 -63 0 -164
32 -271 85 -176 86 -291 200 -376 370 -68 137 -89 227 -89 380 0 88 5 143 19
198 24 93 86 224 140 296 23 29 41 59 41 66 0 43 -311 355 -354 355 -11 0 -60
-26 -110 -58 -159 -103 -287 -142 -461 -142 -235 0 -437 84 -603 251 -116 116
-184 248 -226 434 -14 59 -27 110 -31 113 -18 18 -285 25 -449 11z m499 -1153
c459 -100 848 -401 1055 -816 51 -102 112 -284 136 -406 22 -110 26 -404 6
-507 -124 -655 -586 -1126 -1227 -1253 -126 -25 -424 -25 -549 0 -118 23 -304
84 -396 131 -285 142 -545 403 -688 690 -56 112 -117 301 -137 423 -22 131
-16 458 9 562 49 195 130 383 235 539 72 109 240 284 350 366 205 153 490 267
721 289 95 9 416 -3 485 -18z"/>
<path d="M2435 3780 c-126 -27 -225 -64 -330 -121 -140 -77 -287 -202 -270
-229 4 -7 287 -10 831 -10 786 0 824 1 824 18 0 51 -245 225 -396 282 -151 56
-232 71 -404 76 -138 3 -180 1 -255 -16z"/>
<path d="M1728 3284 c-50 -9 -89 -84 -52 -98 9 -3 134 -6 278 -6 260 0 262 0
312 25 55 28 100 63 92 71 -7 7 -595 14 -630 8z"/>
<path d="M3043 3283 c-40 -2 -73 -8 -73 -13 0 -6 25 -27 57 -47 l56 -38 286 0
286 0 3 26 c2 14 -6 36 -17 50 l-19 24 -254 1 c-139 0 -286 -1 -325 -3z"/>
<path d="M1543 2893 c-16 -24 -18 -52 -18 -228 1 -190 2 -205 28 -289 66 -211
143 -348 273 -486 176 -185 374 -293 639 -351 78 -17 322 -17 400 0 348 76
623 269 788 556 120 208 173 445 150 675 -16 160 2 150 -270 150 -184 0 -225
-3 -229 -14 -3 -8 2 -52 10 -98 32 -167 14 -296 -58 -444 -75 -152 -209 -269
-381 -334 -75 -28 -253 -39 -347 -21 -35 7 -105 32 -156 57 -158 76 -284 218
-344 386 -20 56 -22 80 -20 213 1 83 3 173 5 200 l2 50 -227 3 -227 2 -18 -27z"/>
</g>
</svg>
