<?xml version="1.0" encoding="UTF-8" standalone="no" ?>
<!DOCTYPE svg PUBLIC "-//W3C//DTD SVG 1.1//EN" "http://www.w3.org/Graphics/SVG/1.1/DTD/svg11.dtd">
<svg xmlns="http://www.w3.org/2000/svg" xmlns:xlink="http://www.w3.org/1999/xlink" version="1.1" width="1080" height="1080" viewBox="0 0 1080 1080" xml:space="preserve">
<desc>Created with Fabric.js 5.2.4</desc>
<defs>
</defs>
<g transform="matrix(1 0 0 1 540 540)" id="90761788-e579-4c82-a50c-9cdb4d2c570f"  >
</g>
<g transform="matrix(1 0 0 1 540 540)" id="f8c62cb5-7d08-4b93-a2aa-73f59245c303"  >
<rect style="stroke: none; stroke-width: 1; stroke-dasharray: none; stroke-linecap: butt; stroke-dashoffset: 0; stroke-linejoin: miter; stroke-miterlimit: 4; fill: rgb(255,255,255); fill-rule: nonzero; opacity: 1; visibility: hidden;" vector-effect="non-scaling-stroke"  x="-540" y="-540" rx="0" ry="0" width="1080" height="1080" />
</g>
<g transform="matrix(0.13 0 0 -0.13 540 540)"  >
<path style="stroke: none; stroke-width: 1; stroke-dasharray: none; stroke-linecap: butt; stroke-dashoffset: 0; stroke-linejoin: miter; stroke-miterlimit: 4; fill: rgb(0,0,0); fill-rule: nonzero; opacity: 1;" vector-effect="non-scaling-stroke"  transform=" translate(-2661.4, -2660.51)" d="M 2466 5309 C 2408 5304 2361 5295 2354 5288 C 2346 5281 2333 5238 2325 5193 C 2286 4986 2222 4862 2085 4725 C 1950 4589 1808 4514 1630 4483 C 1531 4465 1377 4471 1286 4495 C 1202 4517 1076 4575 1010 4621 C 979 4642 945 4660 934 4660 C 898 4660 590 4342 590 4306 C 590 4298 615 4256 645 4211 C 772 4027 827 3824 801 3635 C 747 3248 494 2974 118 2895 C 8 2871 13 2878 5 2738 C -2 2598 13 2393 32 2374 C 39 2367 88 2352 140 2342 C 376 2294 547 2188 680 2009 C 745 1922 805 1789 826 1687 C 848 1584 845 1413 821 1320 C 798 1229 736 1093 686 1025 C 666 998 650 965 650 953 C 650 917 913 649 987 609 C 1015 594 1006 590 1132 674 C 1220 733 1292 764 1408 791 C 1480 808 1518 811 1625 808 C 1739 804 1767 799 1850 771 C 2070 696 2264 521 2355 316 C 2368 287 2390 213 2405 153 C 2420 93 2435 37 2440 30 C 2453 9 2655 -3 2795 10 C 2861 16 2923 23 2932 26 C 2952 32 2954 37 2975 155 C 3007 331 3092 484 3229 612 C 3272 652 3333 700 3364 719 C 3443 766 3583 817 3671 831 C 3761 845 3923 837 4004 815 C 4084 794 4217 731 4286 681 C 4318 658 4352 640 4363 640 C 4387 640 4679 925 4705 974 L 4723 1007 L 4666 1088 C 4426 1430 4465 1879 4760 2171 C 4881 2291 5038 2370 5214 2401 C 5251 2407 5287 2418 5295 2426 C 5316 2448 5323 2537 5318 2733 C 5313 2905 5312 2914 5290 2932 C 5278 2942 5254 2950 5236 2950 C 5173 2950 5072 2982 4965 3035 C 4789 3121 4674 3235 4589 3405 C 4521 3542 4500 3632 4500 3785 C 4500 3873 4505 3928 4519 3983 C 4543 4076 4605 4207 4659 4279 C 4682 4308 4700 4338 4700 4345 C 4700 4388 4389 4700 4346 4700 C 4335 4700 4286 4674 4236 4642 C 4077 4539 3949 4500 3775 4500 C 3540 4500 3338 4584 3172 4751 C 3056 4867 2988 4999 2946 5185 C 2932 5244 2919 5295 2915 5298 C 2897 5316 2630 5323 2466 5309 z M 2965 4156 C 3424 4056 3813 3755 4020 3340 C 4071 3238 4132 3056 4156 2934 C 4178 2824 4182 2530 4162 2427 C 4038 1772 3576 1301 2935 1174 C 2809 1149 2511 1149 2386 1174 C 2268 1197 2082 1258 1990 1305 C 1705 1447 1445 1708 1302 1995 C 1246 2107 1185 2296 1165 2418 C 1143 2549 1149 2876 1174 2980 C 1223 3175 1304 3363 1409 3519 C 1481 3628 1649 3803 1759 3885 C 1964 4038 2249 4152 2480 4174 C 2575 4183 2896 4171 2965 4156 z" stroke-linecap="round" />
</g>
</svg>